<svg id="Layer_1" data-name="Layer 1" xmlns="http://www.w3.org/2000/svg" viewBox="0 0 397.75 63.75"><defs><style>.cls-1{fill:#fff;}</style></defs><title>With logo Black</title><path class="cls-1" d="M27.63,22.21H27.53L21,50H12.54L2.27,10.13h8.47l6.2,29.28H17l6.25-29.28h8.58l6.51,29.28h0.11l5.77-29.28h8.42L42.51,50H34.09Z"/><path class="cls-1" d="M68.46,9.39h5.82L58.72,50.69H52.89Z"/><path class="cls-1" d="M75.35,33.17h52.95V39H75.35V33.17Z"/><path class="cls-1" d="M128.3,33.17h52.95V39H128.3V33.17Z"/><path class="cls-1" d="M194,10.13h13c6.25,0,13.82,2.86,13.82,12.65,0,9.16-6.83,12.6-13.18,12.6H202V50H194V10.13ZM206.4,28.61c5.24,0,6.46-3.18,6.46-5.82s-1.85-5.88-6.41-5.88H202v11.7h4.45Z"/><path class="cls-1" d="M225.63,22.74h7.31V28H233c1.43-3.87,4.24-6,7.84-6h1.06v7.41h-1.69c-3.92,0-7,2.38-7,7.2V50h-7.62V22.74Z"/><path class="cls-1" d="M258.72,50.69c-8.21,0-13.93-5.61-13.93-14.35S250.51,22,258.72,22s13.92,5.61,13.92,14.35S266.93,50.69,258.72,50.69Zm0-22.56c-4,0-6,3.49-6,8.21s2,8.21,6,8.21,6-3.49,6-8.21S262.75,28.14,258.72,28.14Z"/><path class="cls-1" d="M274,55.88h2c1.16,0,2.44-.69,2.44-3.49V22.74H286v30c0,8.37-5.72,9.64-9.58,9.64-0.79,0-1.64-.11-2.49-0.11V55.88Zm8.26-46.06a4.54,4.54,0,0,1,4.45,4.4,4.45,4.45,0,0,1-8.9.11A4.59,4.59,0,0,1,282.23,9.82Z"/><path class="cls-1" d="M299.76,38.52c0.32,3.18,2.28,6.35,6.35,6.35a5.89,5.89,0,0,0,5.45-3.23L319,42.22c-1.85,5.56-6.83,8.47-13.24,8.47-8.21,0-13.93-5.61-13.93-14.3S297.54,22,305.74,22s13.92,5.61,13.92,14.4v2.12H299.76ZM312,33.64c-0.26-2.65-2.28-5.82-5.93-5.82-4,0-5.93,2.75-6.35,5.82H312Z"/><path class="cls-1" d="M341.75,33.17c-0.16-3.81-2.38-4.71-4.39-4.71-4.71,0-5.29,5-5.29,8.47s1.27,7.62,5.24,7.62c2.91,0,4.39-1.8,4.82-4.45l7.46,0.26c-1.16,6-4.76,10.32-12.07,10.32-8.9,0-13.4-5.72-13.4-14.08,0-8.74,5-14.61,13.24-14.61,8.1,0,12,5.08,12.34,10.85Z"/><path class="cls-1" d="M352.29,22.74h3.49V14.9h7.63v7.84h4v5.82h-4V42.33c0,1.22.53,1.8,2.49,1.8a6.53,6.53,0,0,0,1.54-.16v6a28.38,28.38,0,0,1-3.65.32c-5,0-8-1.22-8-7.1V28.56h-3.49V22.74Z"/><path class="cls-1" d="M387.66,31.16c-0.11-2.28-1.75-3.65-4.66-3.65-2,0-4,.79-4,2.44,0,4.87,16.94.64,16.94,11.65,0,2.12-1.16,9.11-12.39,9.11-3.81,0-11.44-1.17-12.07-9.21h7.63c0.11,2.65,2.44,3.71,4.71,3.71,2,0,4.5-.58,4.5-2.81C388.3,37.83,372,42,372,30.73c0-4.18,3.23-8.74,11.28-8.74,7,0,11.6,3.07,12,9Z"/></svg>